# xmcd CD database file
#
# Track frame offsets:
#	150
#	22060
#	45805
#	63344
#	84064
#	102783
#	123479
#	143027
#	161499
#	179759
#
# Disc length: 2656 seconds
#
# Revision: 0
# Processed by: cddbd v1.4PL0 Copyright (c) Steve Scherf et al.
# Submitted via: Feurio! 1.66 - http://www.feurio.com
#
DISCID=780a5e0a
DTITLE=St. Martin - Romanc
DYEAR=1997
DGENRE=
TTITLE0=Égi leszálló pálya
TTITLE1=Papa, hallasz engem ?
TTITLE2=Kedves minden pillanat
TTITLE3=Sikolt egy néma virág
TTITLE4=Akit szivedbe rejtettél
TTITLE5=Vigyázz magadra vén világ!
TTITLE6=Belül ég, kivül éget
TTITLE7=Örök ösz, örök esö
TTITLE8=Huncut sohajtás
TTITLE9=Szeretném meghálálni
EXTD=St. Martin - tenor saxophone
EXTT0=
EXTT1=
EXTT2=
EXTT3=
EXTT4=
EXTT5=
EXTT6=
EXTT7=
EXTT8=
EXTT9=
PLAYORDER=
